<svg width="64" height="64" viewBox="0 0 64 64" xmlns="http://www.w3.org/2000/svg">
  <!-- 探索船 等级2 -->
  <polygon points="32,12 42,20 40,36 32,42 24,36 22,20" fill="#CCCCCC" stroke="#000000" stroke-width="2"/>
  <polygon points="32,12 40,18 38,32 32,38" fill="#EEEEEE"/>
  <!-- 探测器阵列 -->
  <circle cx="32" cy="22" r="5" fill="#666666" stroke="#000000" stroke-width="2"/>
  <circle cx="32" cy="22" r="3" fill="#FFFFFF"/>
  <circle cx="26" cy="26" r="3" fill="#999999" stroke="#000000" stroke-width="1"/>
  <circle cx="38" cy="26" r="3" fill="#999999" stroke="#000000" stroke-width="1"/>
  <!-- 天线 -->
  <line x1="26" y1="18" x2="20" y2="14" stroke="#666666" stroke-width="2"/>
  <line x1="38" y1="18" x2="44" y2="14" stroke="#666666" stroke-width="2"/>
  <circle cx="20" cy="14" r="2" fill="#333333" stroke="#000000" stroke-width="1"/>
  <circle cx="44" cy="14" r="2" fill="#333333" stroke="#000000" stroke-width="1"/>
  <!-- 推进器 -->
  <polygon points="28,42 32,46 36,42" fill="#666666" stroke="#000000" stroke-width="1"/>
  <line x1="30" y1="46" x2="30" y2="50" stroke="#999999" stroke-width="1"/>
  <line x1="34" y1="46" x2="34" y2="50" stroke="#999999" stroke-width="1"/>
  <!-- 等级标记 -->
  <text x="32" y="34" font-size="8" text-anchor="middle" fill="#333333" font-weight="bold">II</text>
</svg>

